<svg preserveAspectRatio="none" overflow="visible" style="display: block;" width="365.223" height="371.368" viewBox="0 0 365.223 371.368" fill="none" xmlns="http://www.w3.org/2000/svg">
<g id="Group">
<path id="Vector" d="M352.863 210.475H241.445C238.039 210.475 235.265 213.249 235.265 216.655V247.59H130.028C126.622 247.59 123.848 250.364 123.848 253.77V284.706H18.5754C15.1693 284.706 12.3953 287.48 12.3953 290.886V365.188C12.3953 368.594 15.1693 371.368 18.5754 371.368H352.863C356.269 371.368 359.043 368.594 359.043 365.188V216.62C359.043 213.214 356.269 210.44 352.863 210.44V210.475ZM247.626 321.892V297.137H260.021V303.317C260.021 306.723 262.795 309.497 266.201 309.497C269.607 309.497 272.381 306.723 272.381 303.317V297.137H290.956V303.317C290.956 306.723 293.73 309.497 297.137 309.497C300.543 309.497 303.317 306.723 303.317 303.317V297.137H321.892V303.317C321.892 306.723 324.666 309.497 328.072 309.497C331.478 309.497 334.252 306.723 334.252 303.317V297.137H346.648V321.892H247.59H247.626ZM136.208 321.892V297.137H148.603V303.317C148.603 306.723 151.377 309.497 154.784 309.497C158.19 309.497 160.964 306.723 160.964 303.317V297.137H179.539V303.317C179.539 306.723 182.313 309.497 185.719 309.497C189.125 309.497 191.899 306.723 191.899 303.317V297.137H210.475V303.317C210.475 306.723 213.249 309.497 216.655 309.497C220.061 309.497 222.835 306.723 222.835 303.317V297.137H235.23V321.892H136.173H136.208ZM259.986 259.986V266.166C259.986 269.572 262.76 272.346 266.166 272.346C269.572 272.346 272.346 269.572 272.346 266.166V259.986H290.921V266.166C290.921 269.572 293.695 272.346 297.101 272.346C300.508 272.346 303.282 269.572 303.282 266.166V259.986H321.857V266.166C321.857 269.572 324.631 272.346 328.037 272.346C331.443 272.346 334.217 269.572 334.217 266.166V259.986H346.613V284.741H247.555V259.986H259.951H259.986ZM247.626 222.87H260.021V229.05C260.021 232.456 262.795 235.23 266.201 235.23C269.607 235.23 272.381 232.456 272.381 229.05V222.87H290.956V229.05C290.956 232.456 293.73 235.23 297.137 235.23C300.543 235.23 303.317 232.456 303.317 229.05V222.87H321.892V229.05C321.892 232.456 324.666 235.23 328.072 235.23C331.478 235.23 334.252 232.456 334.252 229.05V222.87H346.648V247.625H247.59V222.87H247.626ZM136.208 259.986H148.603V266.166C148.603 269.572 151.377 272.346 154.784 272.346C158.19 272.346 160.964 269.572 160.964 266.166V259.986H179.539V266.166C179.539 269.572 182.313 272.346 185.719 272.346C189.125 272.346 191.899 269.572 191.899 266.166V259.986H210.475V266.166C210.475 269.572 213.249 272.346 216.655 272.346C220.061 272.346 222.835 269.572 222.835 266.166V259.986H235.23V284.741H136.173V259.986H136.208ZM24.7555 297.137H37.1508V303.317C37.1508 306.723 39.9249 309.497 43.331 309.497C46.737 309.497 49.5111 306.723 49.5111 303.317V297.137H68.0865V303.317C68.0865 306.723 70.8605 309.497 74.2666 309.497C77.6727 309.497 80.4467 306.723 80.4467 303.317V297.137H99.0221V303.317C99.0221 306.723 101.796 309.497 105.202 309.497C108.608 309.497 111.382 306.723 111.382 303.317V297.137H123.778V321.892H24.7555V297.137ZM24.7555 334.287H37.1508V340.468C37.1508 343.874 39.9249 346.648 43.331 346.648C46.737 346.648 49.5111 343.874 49.5111 340.468V334.287H68.0865V340.468C68.0865 343.874 70.8605 346.648 74.2666 346.648C77.6727 346.648 80.4467 343.874 80.4467 340.468V334.287H99.0221V340.468C99.0221 343.874 101.796 346.648 105.202 346.648C108.608 346.648 111.382 343.874 111.382 340.468V334.287H123.778V359.043H24.7555V334.287ZM136.208 334.287H148.603V340.468C148.603 343.874 151.377 346.648 154.784 346.648C158.19 346.648 160.964 343.874 160.964 340.468V334.287H179.539V340.468C179.539 343.874 182.313 346.648 185.719 346.648C189.125 346.648 191.899 343.874 191.899 340.468V334.287H210.475V340.468C210.475 343.874 213.249 346.648 216.655 346.648C220.061 346.648 222.835 343.874 222.835 340.468V334.287H235.23V359.043H136.173V334.287H136.208ZM346.683 359.043H247.626V334.287H260.021V340.468C260.021 343.874 262.795 346.648 266.201 346.648C269.607 346.648 272.381 343.874 272.381 340.468V334.287H290.956V340.468C290.956 343.874 293.73 346.648 297.137 346.648C300.543 346.648 303.317 343.874 303.317 340.468V334.287H321.892V340.468C321.892 343.874 324.666 346.648 328.072 346.648C331.478 346.648 334.252 343.874 334.252 340.468V334.287H346.648V359.043H346.683Z" fill="#180A53"/>
<path id="Vector_2" d="M185.719 185.719C236.916 185.719 278.561 144.074 278.561 92.8771C278.561 41.6806 236.916 0 185.719 0C134.523 0 92.8771 41.6455 92.8771 92.842C92.8771 144.039 134.523 185.684 185.719 185.684V185.719ZM185.719 12.3953C230.104 12.3953 266.201 48.4927 266.201 92.8771C266.201 137.262 230.104 173.359 185.719 173.359C141.335 173.359 105.237 137.262 105.237 92.8771C105.237 48.4927 141.335 12.3953 185.719 12.3953Z" fill="#180A53"/>
<path id="Vector_3" d="M185.719 160.964C223.256 160.964 253.806 130.414 253.806 92.8771C253.806 55.34 223.256 24.7555 185.719 24.7555C148.182 24.7555 117.633 55.3049 117.633 92.842C117.633 130.379 148.182 160.929 185.719 160.929V160.964ZM185.719 37.1508C216.444 37.1508 241.445 62.1522 241.445 92.8771C241.445 123.602 216.444 148.603 185.719 148.603C154.994 148.603 129.993 123.602 129.993 92.8771C129.993 62.1522 154.994 37.1508 185.719 37.1508Z" fill="#180A53"/>
<path id="Vector_4" d="M155.486 122.759C155.1 125.077 156.048 127.43 157.944 128.799C159.84 130.204 162.403 130.379 164.475 129.255L185.754 118.089L207.033 129.255C207.946 129.747 208.93 129.958 209.913 129.958C211.177 129.958 212.476 129.571 213.565 128.764C215.461 127.394 216.409 125.042 216.023 122.724L211.949 99.0572L229.155 82.3077C230.841 80.6574 231.438 78.1994 230.736 75.9521C229.998 73.7048 228.067 72.0895 225.749 71.7384L201.977 68.2972L191.337 46.7721C189.266 42.5584 182.313 42.5584 180.241 46.7721L169.602 68.2972L145.829 71.7384C143.512 72.0895 141.545 73.7048 140.843 75.9521C140.106 78.1994 140.738 80.6574 142.423 82.3077L159.629 99.0572L155.556 122.724L155.486 122.759ZM174.553 80.0955C176.589 79.8146 178.31 78.5505 179.223 76.7246L185.754 63.5216L192.285 76.7246C193.198 78.5505 194.919 79.8146 196.956 80.0955L211.528 82.2024L200.994 92.4909C199.519 93.9305 198.887 95.9672 199.203 97.9687L201.696 112.471L188.669 105.624C187.756 105.132 186.773 104.921 185.789 104.921C184.806 104.921 183.823 105.167 182.91 105.624L169.883 112.471L172.376 97.9687C172.727 95.9672 172.06 93.8954 170.585 92.4909L160.051 82.2024L174.623 80.0955H174.553Z" fill="#180A53"/>
<path id="Vector_5" d="M255.877 196.534C257.071 197.588 258.511 198.079 259.986 198.079C261.706 198.079 263.392 197.377 264.621 196.008L314.132 140.281C316.414 137.718 316.168 133.82 313.605 131.538C311.042 129.255 307.144 129.501 304.862 132.065L255.351 187.791C253.068 190.354 253.314 194.252 255.877 196.534Z" fill="#180A53"/>
<path id="Vector_6" d="M309.532 185.719C311.112 185.719 312.692 185.122 313.921 183.893L332.497 165.318C334.919 162.895 334.919 158.997 332.497 156.574C330.074 154.151 326.176 154.151 323.753 156.574L305.178 175.15C302.755 177.573 302.755 181.47 305.178 183.893C306.372 185.087 307.987 185.719 309.567 185.719H309.532Z" fill="#180A53"/>
<path id="Vector_7" d="M359.043 61.9064H352.863V55.7263C352.863 52.3202 350.089 49.5462 346.683 49.5462C343.277 49.5462 340.503 52.3202 340.503 55.7263V61.9064H334.323C330.916 61.9064 328.142 64.6804 328.142 68.0865C328.142 71.4926 330.916 74.2666 334.323 74.2666H340.503V80.4467C340.503 83.8528 343.277 86.6268 346.683 86.6268C350.089 86.6268 352.863 83.8528 352.863 80.4467V74.2666H359.043C362.449 74.2666 365.223 71.4926 365.223 68.0865C365.223 64.6804 362.449 61.9064 359.043 61.9064Z" fill="#180A53"/>
<path id="Vector_8" d="M297.137 24.7555H303.317V30.9356C303.317 34.3417 306.091 37.1157 309.497 37.1157C312.903 37.1157 315.677 34.3417 315.677 30.9356V24.7555H321.857C325.263 24.7555 328.037 21.9815 328.037 18.5754C328.037 15.1693 325.263 12.3953 321.857 12.3953H315.677V6.21522C315.677 2.80914 312.903 0.0351142 309.497 0.0351142C306.091 0.0351142 303.317 2.80914 303.317 6.21522V12.3953H297.137C293.73 12.3953 290.956 15.1693 290.956 18.5754C290.956 21.9815 293.73 24.7555 297.137 24.7555Z" fill="#180A53"/>
<path id="Vector_9" d="M358.973 18.6457C362.386 18.6457 365.153 15.8787 365.153 12.4655C365.153 9.05237 362.386 6.28545 358.973 6.28545C355.56 6.28545 352.793 9.05237 352.793 12.4655C352.793 15.8787 355.56 18.6457 358.973 18.6457Z" fill="#180A53"/>
<path id="Vector_10" d="M303.352 86.6619C306.765 86.6619 309.532 83.895 309.532 80.4818C309.532 77.0686 306.765 74.3017 303.352 74.3017C299.939 74.3017 297.172 77.0686 297.172 80.4818C297.172 83.895 299.939 86.6619 303.352 86.6619Z" fill="#180A53"/>
<path id="Vector_11" d="M346.683 129.993C350.096 129.993 352.863 127.226 352.863 123.813C352.863 120.4 350.096 117.633 346.683 117.633C343.27 117.633 340.503 120.4 340.503 123.813C340.503 127.226 343.27 129.993 346.683 129.993Z" fill="#180A53"/>
<path id="Vector_12" d="M49.5111 74.3017H55.6912V80.4818C55.6912 83.8879 58.4652 86.6619 61.8713 86.6619C65.2773 86.6619 68.0514 83.8879 68.0514 80.4818V74.3017H74.2315C77.6375 74.3017 80.4116 71.5277 80.4116 68.1216C80.4116 64.7155 77.6375 61.9415 74.2315 61.9415H68.0514V55.7614C68.0514 52.3553 65.2773 49.5813 61.8713 49.5813C58.4652 49.5813 55.6912 52.3553 55.6912 55.7614V61.9415H49.5111C46.105 61.9415 43.331 64.7155 43.331 68.1216C43.331 71.5277 46.105 74.3017 49.5111 74.3017Z" fill="#180A53"/>
<path id="Vector_13" d="M6.1801 142.388H12.3602V148.568C12.3602 151.974 15.1342 154.748 18.5403 154.748C21.9464 154.748 24.7204 151.974 24.7204 148.568V142.388H30.9005C34.3066 142.388 37.0806 139.614 37.0806 136.208C37.0806 132.802 34.3066 130.028 30.9005 130.028H24.7204V123.848C24.7204 120.442 21.9464 117.668 18.5403 117.668C15.1342 117.668 12.3602 120.442 12.3602 123.848V130.028H6.1801C2.77402 130.028 0 132.802 0 136.208C0 139.614 2.77402 142.388 6.1801 142.388Z" fill="#180A53"/>
<path id="Vector_14" d="M12.3953 24.7555H18.5754V30.9356C18.5754 34.3417 21.3494 37.1157 24.7555 37.1157C28.1616 37.1157 30.9356 34.3417 30.9356 30.9356V24.7555H37.1157C40.5218 24.7555 43.2958 21.9815 43.2958 18.5754C43.2958 15.1693 40.5218 12.3953 37.1157 12.3953H30.9356V6.21522C30.9356 2.80914 28.1616 0.0351142 24.7555 0.0351142C21.3494 0.0351142 18.5754 2.80914 18.5754 6.21522V12.3953H12.3953C8.98924 12.3953 6.21522 15.1693 6.21522 18.5754C6.21522 21.9815 8.98924 24.7555 12.3953 24.7555Z" fill="#180A53"/>
<path id="Vector_15" d="M74.2315 18.6457C77.6446 18.6457 80.4116 15.8787 80.4116 12.4655C80.4116 9.05237 77.6446 6.28545 74.2315 6.28545C70.8183 6.28545 68.0514 9.05237 68.0514 12.4655C68.0514 15.8787 70.8183 18.6457 74.2315 18.6457Z" fill="#180A53"/>
<path id="Vector_16" d="M18.5754 86.6619C21.9886 86.6619 24.7555 83.895 24.7555 80.4818C24.7555 77.0686 21.9886 74.3017 18.5754 74.3017C15.1622 74.3017 12.3953 77.0686 12.3953 80.4818C12.3953 83.895 15.1622 86.6619 18.5754 86.6619Z" fill="#180A53"/>
<path id="Vector_17" d="M61.9064 129.993C65.3196 129.993 68.0865 127.226 68.0865 123.813C68.0865 120.4 65.3196 117.633 61.9064 117.633C58.4932 117.633 55.7263 120.4 55.7263 123.813C55.7263 127.226 58.4932 129.993 61.9064 129.993Z" fill="#180A53"/>
<path id="Vector_18" d="M12.3953 266.201C12.3953 269.607 15.1693 272.381 18.5754 272.381C21.9815 272.381 24.7555 269.607 24.7555 266.201V260.021H30.9356C34.3417 260.021 37.1157 257.247 37.1157 253.841C37.1157 250.435 34.3417 247.661 30.9356 247.661H24.7555V241.481C24.7555 238.074 21.9815 235.3 18.5754 235.3C15.1693 235.3 12.3953 238.074 12.3953 241.481V247.661H6.21522C2.80914 247.661 0.0351142 250.435 0.0351142 253.841C0.0351142 257.247 2.80914 260.021 6.21522 260.021H12.3953V266.201Z" fill="#180A53"/>
<path id="Vector_19" d="M61.9064 247.625C65.3196 247.625 68.0865 244.859 68.0865 241.445C68.0865 238.032 65.3196 235.265 61.9064 235.265C58.4932 235.265 55.7263 238.032 55.7263 241.445C55.7263 244.859 58.4932 247.625 61.9064 247.625Z" fill="#180A53"/>
<path id="Vector_20" d="M89.752 275.471C93.1651 275.471 95.9321 272.704 95.9321 269.291C95.9321 265.878 93.1651 263.111 89.752 263.111C86.3388 263.111 83.5719 265.878 83.5719 269.291C83.5719 272.704 86.3388 275.471 89.752 275.471Z" fill="#180A53"/>
<path id="Vector_21" d="M211.353 201.099L192.777 232.035C191.021 234.949 191.969 238.777 194.884 240.532C195.867 241.129 196.991 241.41 198.079 241.41C200.186 241.41 202.223 240.357 203.382 238.39L221.957 207.455C223.713 204.54 222.765 200.713 219.85 198.957C216.936 197.201 213.108 198.15 211.353 201.064V201.099Z" fill="#180A53"/>
<path id="Vector_22" d="M148.568 235.23C150.008 235.23 151.483 234.739 152.642 233.685C155.205 231.438 155.486 227.54 153.238 224.942L109.908 175.431C107.66 172.867 103.727 172.586 101.164 174.834C98.6007 177.081 98.3198 180.979 100.567 183.577L143.898 233.088C145.127 234.493 146.848 235.195 148.568 235.195V235.23Z" fill="#180A53"/>
<path id="Vector_23" d="M167.144 204.295V222.87C167.144 226.276 169.918 229.05 173.324 229.05C176.73 229.05 179.504 226.276 179.504 222.87V204.295C179.504 200.888 176.73 198.114 173.324 198.114C169.918 198.114 167.144 200.888 167.144 204.295Z" fill="#180A53"/>
<path id="Vector_24" d="M105.237 229.05C106.958 229.05 108.643 228.348 109.872 226.978C112.155 224.415 111.909 220.517 109.346 218.235L53.6194 168.724C51.0561 166.441 47.1584 166.687 44.876 169.251C42.5936 171.814 42.8394 175.712 45.4027 177.994L101.129 227.505C102.323 228.559 103.763 229.05 105.237 229.05Z" fill="#180A53"/>
</g>
</svg>
