<svg preserveAspectRatio="none" overflow="visible" style="display: block;" width="117.972" height="11.3163" viewBox="0 0 117.972 11.3163" fill="none" xmlns="http://www.w3.org/2000/svg">
<path id="Vector 36" d="M0.974362 3.73134C1.5858 3.60111 2.4555 3.67482 3.11258 3.80079C3.31306 3.84001 3.2234 4.06521 3.36654 4.10193C3.66477 4.17247 3.89206 4.0524 4.18313 4.13928C4.2725 4.16952 4.18168 4.52388 4.2754 4.54758C4.80321 4.67418 5.31076 4.55772 5.82637 4.60383C8.47537 4.8252 11.0264 4.80944 13.6954 4.8137C14.5671 4.81524 15.646 5.06952 16.5458 4.87792C16.648 4.85541 16.5686 4.55314 16.5867 4.52678C16.8734 4.12267 16.8069 4.74621 17.0158 4.81626C17.871 5.09107 18.7383 5.06822 19.5452 4.90208C19.8668 4.83178 19.5046 4.24353 19.8532 4.56512C19.8775 4.58681 19.8136 4.91653 19.9055 4.94586C20.1132 5.01177 20.502 4.9305 20.6663 4.9466C20.9753 4.97857 21.0322 4.97319 21.3162 4.95971C21.3224 4.95943 21.3286 4.95913 21.335 4.95884C21.7245 4.94367 22.2061 5.07712 22.6367 4.97768C22.7286 4.95548 22.5858 4.62983 22.7307 4.56436C22.8755 4.49899 23.2752 4.50356 23.4022 4.57477C23.535 4.64569 23.4961 4.91063 23.5223 4.96927C23.7384 5.46451 24.1425 4.73675 24.1997 4.71594C25.2578 4.35641 26.1417 4.70456 27.1552 4.64288C27.8962 4.5969 28.6815 4.41759 29.4126 4.39197C30.2478 4.36489 30.9813 4.50201 31.8159 4.42084C31.9012 4.41282 31.7775 4.02736 31.8818 4.01677C32.9861 3.90482 34.1435 3.87816 35.2656 4.07595C35.38 4.09603 35.2553 4.44847 35.3708 4.48907C36.0817 4.72985 37.2169 5.34257 37.5311 3.82177C37.9999 3.8522 38.5746 3.8782 39.0174 4.15429C39.3025 4.33198 39.0615 4.72228 39.3797 4.54276C39.4513 4.50272 39.3357 4.18059 39.4446 4.14534C39.9033 3.99724 40.4233 4.07289 40.8822 3.87519C40.9755 3.83421 40.9317 3.54196 40.9556 3.48742C41.1569 3.04524 41.5803 3.73062 41.6668 3.77706C42.3107 4.12345 42.7512 3.9453 43.3354 3.91947C43.4709 3.91364 43.2871 3.52863 43.4167 3.50884C44.0922 3.41133 44.7934 3.40306 45.4577 3.53871C45.6064 3.56979 45.4922 3.91409 45.5643 3.94614C45.8821 4.08335 45.9124 3.44424 46.218 3.56348C46.2825 3.5878 46.2645 3.87773 46.2779 3.90865C46.487 4.394 46.6007 3.68153 46.646 3.66322C47.2225 3.41555 47.6307 4.1275 48.1828 3.98985C48.2488 3.97264 48.0761 3.61759 48.2631 3.59147C49.5147 3.41496 50.8489 3.4347 52.1112 3.65069C52.3081 3.68374 52.186 3.96568 52.2003 3.99866C52.4314 4.51351 52.5181 3.7997 52.58 3.76927C53.0741 3.5473 53.5658 4.11176 53.8522 3.25048C55.9779 3.41474 58.05 2.81534 60.181 3.44232C60.208 3.44944 60.1816 3.80001 60.2354 3.81272C60.8841 3.96936 60.7293 3.43637 61.1122 2.74984C61.2088 2.57743 61.5822 3.35565 61.6146 3.41239C61.7325 3.62157 61.6551 4.14544 61.6927 4.18505C62.0035 4.49519 61.8522 2.78741 62.2455 2.76302C62.258 2.76512 62.2254 3.08313 62.2603 3.11243C62.3677 3.20457 62.4597 3.07342 62.5651 3.17581C62.8065 3.41291 62.9374 4.23926 63.2546 3.73448C63.2947 3.66904 63.1686 2.70275 63.5188 2.72753C63.6583 2.73824 64.272 2.68434 64.4489 2.73673C64.6253 2.78907 64.5258 3.10896 64.5389 3.12175C65.0294 3.50702 64.8634 3.68909 65.134 4.28709C65.4047 4.88278 65.2518 3.43214 65.3373 3.264C65.4249 3.0962 65.7813 3.417 65.8718 3.53055C65.962 3.64417 65.8706 3.84914 65.9484 3.91181C66.4644 4.3208 66.1194 3.17678 66.2668 2.93613C66.6143 2.3664 66.9771 3.42708 67.3338 3.51154C67.4303 3.53433 67.3381 3.29334 67.4211 3.26524C67.7503 3.15721 67.9723 3.48157 68.3357 3.14977C68.3945 3.09573 68.6673 2.42824 68.8916 2.89233C68.9237 2.95927 68.8605 3.2329 69.0056 3.28454C69.2222 3.3621 69.6071 3.39771 69.8297 3.29402C69.994 3.21733 69.7741 2.7861 69.9945 2.91084C70.0924 2.96656 69.9335 3.23628 70.1162 3.31935C70.298 3.40245 70.7486 3.36368 70.9202 3.34429C71.0914 3.32472 70.977 2.99443 70.9895 2.97096C71.0656 2.8362 71.3858 2.65415 71.4151 2.65278C72.88 2.52271 74.2603 3.00735 75.6802 2.733C75.7908 2.71201 75.6951 2.36221 75.7117 2.35535C76.0842 2.18374 75.8405 3.14403 76.1264 3.44314C76.0442 2.72649 76.2094 2.84712 76.4741 2.75191C76.6016 2.70545 76.5139 2.43134 76.5241 2.40212C76.691 1.96757 76.8584 2.50559 76.8998 2.61522C77.0525 3.01846 77.1621 2.52439 77.2658 2.79382C77.3694 3.06121 77.1937 3.47759 77.4526 3.45667C77.5097 3.19488 77.2763 2.53398 77.4666 2.41302C78.1875 1.95539 79.6009 2.39921 80.1997 2.41785C80.7979 2.43649 80.988 2.37728 81.3414 2.44917C81.9803 2.57916 81.7196 2.09414 82.0968 1.84197C82.4714 1.58998 82.3571 2.82927 82.429 3.08982C82.4998 3.35032 82.5431 3.0751 82.6202 3.216C82.6969 3.35687 82.5607 3.54527 82.7239 3.59C82.8871 3.63468 83.2966 3.1387 83.3368 2.85926C83.4214 2.26726 83.1864 1.66561 83.6241 1.85543C83.6493 1.86675 83.5897 2.19441 83.6852 2.22136C84.4421 2.42483 85.2226 2.39286 85.9758 2.56772C86.0794 2.59227 86.0102 2.95696 86.0708 2.97531C86.7016 3.16755 86.4443 2.57536 86.7419 1.88206C86.7203 2.78194 86.9406 3.3183 87.4105 3.29505C87.6931 3.28137 87.6208 2.89332 87.7868 2.60663C87.8366 2.52023 88.053 2.77654 88.0781 2.59045C88.1612 1.98209 87.9316 1.32068 88.4334 1.5591C88.4555 1.57054 88.4077 1.90369 88.4825 1.91914C88.9662 2.02065 88.9869 1.38834 89.4926 1.28118C89.8895 1.19708 90.6269 1.53707 91.0889 1.57157C91.1404 2.57869 91.5592 2.3219 91.6928 1.61722C91.9923 1.62754 92.3118 1.56873 92.606 1.64713C92.7068 1.67382 92.6596 1.96919 92.674 1.99992C92.8944 2.48229 92.9821 1.79929 93.0444 1.76894C93.7218 1.4695 94.3188 1.94682 94.9525 1.40634C94.975 1.38689 94.9706 0.685403 95.1793 1.1851C95.1929 1.21959 94.9927 1.55105 95.3068 1.55664C95.6206 1.56231 96.2354 1.90111 96.6462 1.55096C96.7461 1.4666 96.9761 0.88293 97.2157 1.31346C97.2476 1.37196 97.2289 1.57437 97.2765 1.68346C97.4303 2.03098 97.4595 1.31991 97.6514 1.91082C97.8433 2.50171 98.194 2.93165 98.6062 2.49085C98.6194 2.47796 98.6889 1.91155 98.8271 1.91203C99.0476 1.91329 99.3668 2.011 99.5963 1.99338C99.7062 1.98474 99.6146 1.64122 99.6333 1.6337C100.359 1.39397 100.9 1.67226 101.698 1.75877C101.845 1.77532 102.232 1.27571 102.536 1.6336C102.869 2.02532 102.656 3.75211 103.34 3.30217C103.617 3.12204 103.844 0.933922 104.425 2.0251C105.401 1.68658 106.359 2.20489 107.332 1.74711C107.376 1.72679 107.48 1.11359 107.586 1.11541C107.743 1.11929 107.846 1.39665 107.959 1.40847C108.432 1.46512 108.846 1.1973 109.3 1.20742C109.473 1.21064 109.43 1.50647 109.636 1.51036C109.841 1.51397 109.954 1.12093 110.243 1.28988C110.461 1.41878 110.719 2.19242 111.001 2.26724C110.965 1.49089 111.156 1.49529 111.482 1.26992C111.545 1.22624 111.459 0.960493 111.487 0.925899C111.604 0.779125 111.734 0.995831 111.844 0.837116C111.87 0.798976 111.856 0.533983 111.877 0.487849C112.054 0.0854788 112.422 0.661187 112.485 0.761472C112.728 1.14222 112.809 0.791462 112.986 0.936436C113.163 1.08141 112.924 1.29057 113.125 1.37283C113.542 1.54293 114.061 1.46844 114.473 1.4556C114.637 1.44885 114.504 1.10204 114.527 1.09286C114.86 0.982556 115.226 1.33784 115.371 0.62203C115.717 2.42897 115.565 0.43294 116.072 0.768027C116.112 0.795191 116.213 1.65349 116.074 1.78885C115.935 1.92409 115.696 1.6684 115.505 1.87787C115.459 1.92706 115.233 2.75089 115.198 2.80206C114.926 3.20207 114.806 1.91759 114.786 1.84784C114.563 1.09574 114.279 1.98568 114.194 2.05119C113.803 2.35122 113.447 2.19124 113.119 2.40841C112.904 2.54894 112.934 3.39331 112.757 3.37812C112.172 3.32813 111.898 2.16438 111.414 3.21734C111.31 3.44195 111.482 4.3563 111.019 3.65727C110.99 3.61319 110.637 2.96934 110.482 3.39958C110.463 3.45383 110.48 3.72232 110.451 3.74669C110.26 3.9048 110.113 3.69899 109.901 3.81472C109.689 3.93045 109.437 4.09915 109.182 4.02321C109.029 3.97786 108.806 3.48924 108.727 3.37112C108.503 3.03058 108.321 3.62234 108.169 3.20267C108.017 2.78092 108.224 2.11369 107.876 1.85639C107.906 2.55481 107.921 3.27262 107.944 3.97546C107.217 3.99502 106.485 3.81315 105.757 3.88838C105.666 3.89841 105.782 4.26785 105.685 4.28827C105.28 4.37277 104.906 4.12713 104.488 4.2594C104.165 4.36323 103.83 4.78217 103.493 4.90314C103.234 4.1176 102.739 4.4197 102.364 4.36929C102.232 4.35198 102.228 4.13823 102.132 4.07428C101.768 3.8382 101.974 4.53376 101.885 4.65059C101.504 5.14933 101.372 3.55463 100.893 3.62341C100.867 3.62651 100.607 4.49668 100.567 4.5523C100.315 4.91454 100.504 4.25878 100.329 4.20628C100.011 4.11029 99.7805 3.92026 99.4279 4.19194C99.3251 4.27231 99.1003 4.81847 98.8674 4.42075C98.8368 4.36868 98.8348 4.08642 98.8118 4.07128C98.3966 3.82087 98.4399 4.70553 98.2306 5.01876C98.0213 5.33193 97.6331 4.74302 97.551 4.57148C97.3364 4.12784 97.6823 4.36833 97.6897 4.32306C97.7763 3.78446 97.5258 3.89152 97.3276 3.85851C97.2465 2.99343 96.9764 3.06208 97.1223 3.82777C97.1387 3.91138 97.2859 3.8213 97.3276 3.85851C97.2076 4.71939 96.9139 4.84658 96.5342 4.07199C96.356 3.70897 96.4781 3.26565 96.0132 3.45338C95.8024 3.53818 95.9218 4.12996 95.7419 4.30422C95.3309 4.70185 94.7345 4.1793 94.2942 4.29412C94.1345 4.3358 94.3118 4.65292 94.2034 4.69266C93.9155 4.79915 93.6422 4.56973 93.3559 4.71318C93.3299 4.72659 93.4158 5.06462 93.3247 5.07454C92.637 5.15621 92.0109 4.97442 91.2858 5.0124C90.9348 5.03095 90.3202 5.25763 89.9558 5.24171C89.3271 5.21598 88.5164 4.76612 87.9862 4.9196C87.6398 5.01826 87.7377 5.35564 87.6015 5.59784C87.3389 6.06724 86.7773 5.28916 86.7008 5.16804C86.6984 5.16402 86.9947 5.06508 86.8234 4.89926C86.7077 4.53907 86.7041 5.16625 86.7008 5.16804C86.6505 5.08986 86.0449 5.04872 85.9299 5.12134C85.8673 5.16101 85.9232 5.48289 85.8902 5.49745C85.0991 5.83662 84.2939 5.96823 83.469 5.86625C83.4542 5.86058 83.4538 5.49676 83.4194 5.48794C82.937 5.35548 82.6635 5.81719 82.2894 6.10418C81.9129 6.3912 81.5971 6.32191 81.3277 5.71365C81.0372 5.80995 80.5978 5.5605 80.3448 5.40831C80.0918 5.25612 80.1008 5.96383 80.0803 5.97907C79.4407 6.46607 79.0373 6.08518 78.3354 6.06472C78.0029 6.0537 77.3552 6.19577 77.004 6.29454C76.7265 6.37378 76.5472 6.21869 76.2951 6.34013C76.261 6.35637 76.3154 6.66842 76.3054 6.68117C76.0398 7.0746 76.1318 6.29808 76.0639 6.16452C75.817 5.67881 75.6715 5.42098 75.3117 5.67837C75.2289 5.73734 75.0455 6.8585 74.893 6.93268C74.6944 7.02709 74.7471 6.62602 74.5401 6.73496C74.5223 6.74392 74.541 6.98826 74.409 6.98544C73.7967 6.9756 73.1263 6.87347 72.4996 6.9361C72.414 6.94372 72.5475 7.32496 72.4241 7.34235C71.8415 7.42386 71.1934 7.44879 70.613 7.30176C70.4699 7.26437 70.5414 6.98742 70.506 6.90863C70.2894 6.43202 70.0678 7.15706 70.025 7.17322C69.0105 7.57674 68.161 6.98428 67.1174 7.35418C67.0605 7.37563 66.6617 8.16266 66.4244 7.52281C66.4082 7.48026 66.1719 6.82523 66.0268 7.29169C66.0178 7.32087 66.1604 7.65682 65.9457 7.63471C65.7338 7.61252 65.3968 7.86307 65.0791 7.50372C64.9783 7.39056 64.7168 6.7387 64.4706 7.28588C64.4546 7.32401 64.0981 8.54913 63.8952 7.73107C63.8622 7.59639 63.8349 6.71934 63.5315 7.18826C63.4736 7.27911 63.6 7.46744 63.4411 7.59946C63.1977 7.80284 62.8471 7.58875 62.5587 7.99766C62.5075 8.07006 62.3082 8.67856 62.0925 8.23895C62.0587 8.1701 62.097 7.87442 61.9956 7.84774C61.5132 7.7195 61.0319 7.94488 60.5437 7.77149C60.3708 7.71065 60.4283 7.23292 60.2451 7.11693C60.0619 7.00098 59.7017 6.90059 59.5321 7.12758C59.3617 7.35472 59.61 8.09551 59.3354 8.17263C58.1344 8.50806 56.9397 8.13701 55.7256 8.14564C55.5461 8.14682 55.7106 8.40732 55.4475 8.42838C54.478 8.50718 52.8342 8.86022 51.9537 8.33877C51.2544 7.92076 52.0781 7.52051 51.554 7.36489C51.3012 7.29082 51.0878 8.18246 51.03 8.21362C50.4709 8.52844 50.0331 8.16564 49.5122 8.31655C49.4046 8.34784 49.533 8.69624 49.4412 8.71894C49.128 8.79964 48.7867 8.66129 48.4881 8.7084C48.3542 8.73036 48.3954 8.99989 48.2704 8.98645C47.97 8.95749 47.7088 8.85893 47.3975 8.62277C47.3694 8.60124 47.5296 8.25318 47.3058 8.25411C46.9438 8.25657 46.483 8.03288 46.0883 8.31644C45.9713 8.40164 46.0037 9.02138 45.717 8.60934C45.657 8.52329 45.6816 7.77529 45.4173 8.43626C45.3711 8.54624 44.922 9.44337 44.6318 8.90007C44.5557 8.75706 44.3477 8.15873 44.2057 8.2633C44.1866 8.27977 44.2869 8.60765 44.1665 8.64749C43.7417 8.7821 43.2906 8.77369 42.86 8.90425C42.745 8.93977 42.9395 9.2736 42.7676 9.31554C42.2996 9.4311 41.6876 9.38001 41.2073 9.30079C41.0306 9.27091 41.1339 8.97844 41.1193 8.94816C40.8851 8.45561 40.8062 9.14425 40.7412 9.18804C40.3368 9.45119 40.0009 9.15017 39.6249 9.25783C39.5212 9.28667 39.6153 9.60709 39.5961 9.63732C39.3959 9.93347 39.5243 9.34014 39.3795 9.2843C38.9723 9.12604 38.5356 9.17854 38.1437 9.24379C37.9998 9.26824 38.1852 9.63518 38.0559 9.65276C37.2961 9.76364 36.4919 9.77582 35.7236 9.61356C35.5797 9.58227 35.6513 9.28682 35.6178 9.22233C35.3866 8.77098 35.1288 9.42107 35.0646 9.48538C34.7716 9.77899 34.6405 9.5294 34.3682 9.59381C33.0191 9.91411 31.3554 9.84336 30.0892 9.81382C28.4191 9.77822 27.112 9.57936 25.5597 9.74383C25.462 9.75386 25.584 10.1339 25.4997 10.1475C24.3623 10.3087 23.278 10.2218 22.161 10.4C22.071 10.4138 22.2231 10.772 22.0795 10.8064C21.9523 10.8382 21.8101 10.8566 21.6659 10.8591C21.4655 10.8632 21.2616 10.8401 21.0827 10.7842C20.929 10.7368 21.112 10.4109 20.9578 10.3696C20.5991 10.2727 20.2273 10.2686 19.8828 10.3478C19.7306 10.3826 19.9874 10.743 19.7841 10.7593C18.4095 10.8778 17.1278 11.0179 15.7096 10.6146C15.6149 10.5867 15.4888 9.83093 15.3029 9.98814C15.3006 10.2001 15.3159 10.4483 15.3227 10.6743C13.3728 10.9101 11.3888 10.7605 9.42068 10.8314C9.33904 10.8344 9.50263 11.2294 9.34505 11.2373C8.40113 11.2848 7.51509 11.4466 6.53876 11.0985C6.44039 11.0646 6.44729 10.353 6.17037 10.4757C6.11674 10.4983 5.72226 10.6147 5.60846 10.7752C5.59468 10.7992 5.69085 11.126 5.55302 11.1431C4.77052 11.2358 3.93392 11.2043 3.13343 11.0412C3.00692 11.0141 3.12207 10.655 3.03247 10.6326C2.38351 10.4767 1.68499 10.7786 1.02969 10.4796C0.588071 10.277 0.730738 9.66216 0.490848 9.06653C0.459958 8.98276 0.188473 8.97204 0.176576 8.62225C0.141215 7.74369 0.253856 6.78093 0.200931 5.84455C0.195386 5.64318 -0.133406 5.86051 0.0618966 5.37295C0.079128 5.34051 0.295574 5.17781 0.344945 5.01136C0.38031 4.8965 0.311808 4.54209 0.379669 4.39467C0.449193 4.24729 0.540895 4.54341 0.660554 4.36805C0.790053 4.19003 0.713253 3.7883 0.974362 3.73134ZM79.2078 4.72844C78.9632 4.40316 79.0056 5.64635 79.2298 5.33468C79.2406 5.31814 79.2204 4.74436 79.2078 4.72844ZM106.433 2.87665C106.105 2.34713 105.952 3.16436 106.186 3.57451C106.419 3.98421 106.532 3.03714 106.433 2.87665ZM109.46 2.29136C109.089 1.88066 109.142 3.644 109.489 3.26578C109.509 3.24437 109.481 2.3152 109.46 2.29136ZM1.5222 8.86265C1.5183 8.84633 1.3281 8.83776 1.32695 8.85413C1.24168 9.25273 1.62037 9.2697 1.5222 8.86265ZM112.462 1.672C112.34 1.44045 112.047 1.73409 112.199 2.02203C112.321 2.25367 112.613 1.96003 112.462 1.672ZM67.38 4.11682C67.3753 4.09854 67.2437 4.08981 67.2527 4.1942C67.282 4.5304 67.458 4.42433 67.38 4.11682ZM117.608 1.33857C116.843 1.31862 116.294 -0.107206 117.132 0.0064497C117.284 0.0270045 116.837 0.489753 117.036 0.609211C117.4 0.82675 117.577 -0.100227 117.963 0.367233C118.033 0.452837 117.652 1.34294 117.607 1.34068C117.608 1.33998 117.608 1.33928 117.608 1.33857ZM78.9883 3.24545C78.9828 3.22931 78.8022 3.22466 78.7989 3.24119C78.7255 3.64114 79.0894 3.65074 78.9883 3.24545ZM59.7204 3.81087C59.7082 3.7765 59.2902 3.769 59.2787 3.80204C59.1007 4.45955 59.9459 4.47664 59.7204 3.81087ZM91.0977 1.59798C91.2709 1.18958 91.5042 1.12856 91.6919 1.61677C91.494 1.60228 91.2963 1.61039 91.0977 1.59798Z" fill="#FF0000"/>
</svg>
